<?xml version="1.0" encoding="utf-8"?>
<!-- Generator: Adobe Illustrator 24.0.0, SVG Export Plug-In . SVG Version: 6.00 Build 0)  -->
<svg version="1.1" id="Layer_1" xmlns="http://www.w3.org/2000/svg" xmlns:xlink="http://www.w3.org/1999/xlink" x="0px" y="0px"
	 viewBox="0 0 128 128" style="enable-background:new 0 0 128 128;" xml:space="preserve">
<style type="text/css">
	.st0{fill:#A5D7D4;}
	.st1{fill:#FFFFFF;}
	.st2{fill:none;}
</style>
<g>
	<path class="st0" d="M46.4,61c-5.1,0-9.2-4.1-9.2-9.2s4.1-9.2,9.2-9.2s9.2,4.1,9.2,9.2S51.5,61,46.4,61z M46.4,45.6
		c-3.4,0-6.2,2.8-6.2,6.2S43,58,46.4,58s6.2-2.8,6.2-6.2S49.8,45.6,46.4,45.6z"/>
</g>
<g>
	<path class="st0" d="M33.4,52.3c-0.8,0-1.5-0.7-1.5-1.5c0-7.4,6-13.5,13.5-13.5c0.8,0,1.5,0.7,1.5,1.5s-0.7,1.5-1.5,1.5
		c-5.8,0-10.5,4.7-10.5,10.5C34.9,51.6,34.3,52.3,33.4,52.3z"/>
</g>
<g>
	<path class="st0" d="M46.4,83.1c-3.1,0-5.7-2.7-5.7-5.9v-3.3c-2.1-0.5-4-1.3-5.8-2.4l-2.4,2.4c-1.1,1.1-2.6,1.8-4.2,1.8
		c-1.5,0-2.9-0.6-4-1.6c-2.2-2.2-2.1-5.9,0.2-8.2l2.4-2.4c-1.1-1.8-1.9-3.8-2.4-5.8h-3.3c-3.3,0-5.9-2.6-5.9-5.7s2.6-5.7,5.9-5.7
		h3.3c0.5-2.1,1.3-4,2.4-5.8l-2.4-2.4c-2.3-2.3-2.4-6-0.2-8.2c1-1,2.4-1.6,4-1.6c1.6,0,3.1,0.6,4.2,1.8l2.4,2.4
		c1.8-1.1,3.8-1.9,5.8-2.4v-3.3c0-3.3,2.6-5.9,5.7-5.9s5.7,2.6,5.7,5.9v3.3c2.1,0.5,4,1.3,5.8,2.4l2.4-2.4c1.1-1.1,2.7-1.8,4.2-1.8
		c1.5,0,2.9,0.6,4,1.6c2.2,2.2,2.1,5.9-0.2,8.2L66,40.3c1.1,1.8,1.9,3.8,2.4,5.8h3.3c3.3,0,5.9,2.6,5.9,5.7s-2.7,5.7-5.9,5.7h-3.3
		c-0.5,2.1-1.3,4-2.4,5.8l2.4,2.4c2.3,2.3,2.4,6,0.2,8.2c-1,1-2.4,1.6-4,1.6c-1.6,0-3.1-0.6-4.2-1.8l-2.4-2.4
		c-1.8,1.1-3.8,1.9-5.8,2.4v3.3C52.1,80.4,49.5,83.1,46.4,83.1z M34.7,68c0.3,0,0.6,0.1,0.8,0.3c2.1,1.4,4.5,2.4,7,2.9
		c0.7,0.1,1.2,0.8,1.2,1.5v4.5c0,1.6,1.2,2.9,2.7,2.9s2.7-1.3,2.7-2.9v-4.5c0-0.7,0.5-1.3,1.2-1.5c2.5-0.5,4.9-1.5,7-2.9
		c0.6-0.4,1.4-0.3,1.9,0.2l3.2,3.2c1.1,1.1,3,1.2,4,0.2c1-1,1-2.8-0.2-4L63,64.6c-0.5-0.5-0.6-1.3-0.2-1.9c1.4-2.1,2.4-4.5,2.9-7
		c0.1-0.7,0.8-1.2,1.5-1.2h4.5c1.6,0,2.9-1.2,2.9-2.7s-1.3-2.7-2.9-2.7h-4.5c-0.7,0-1.3-0.5-1.5-1.2c-0.5-2.5-1.5-4.9-2.9-7
		c-0.4-0.6-0.3-1.4,0.2-1.9l3.2-3.2c1.1-1.1,1.2-2.9,0.2-4c-1-1-2.9-0.9-4,0.2l-3.2,3.2c-0.5,0.5-1.3,0.6-1.9,0.2
		c-2.1-1.4-4.5-2.4-7-2.9c-0.7-0.1-1.2-0.8-1.2-1.5v-4.5c0-1.6-1.2-2.9-2.7-2.9s-2.7,1.3-2.7,2.9V31c0,0.7-0.5,1.3-1.2,1.5
		c-2.5,0.5-4.9,1.5-7,2.9c-0.6,0.4-1.4,0.3-1.9-0.2L30.4,32c-1.1-1.1-3-1.2-4-0.2c-1,1-1,2.8,0.2,4l3.2,3.2c0.5,0.5,0.6,1.3,0.2,1.9
		c-1.4,2.1-2.4,4.5-2.9,7c-0.1,0.7-0.8,1.2-1.5,1.2h-4.5c-1.6,0-2.9,1.2-2.9,2.7s1.3,2.7,2.9,2.7h4.5c0.7,0,1.3,0.5,1.5,1.2
		c0.5,2.5,1.5,4.9,2.9,7c0.4,0.6,0.3,1.4-0.2,1.9l-3.2,3.2c-1.1,1.1-1.2,2.9-0.2,4c1,1,2.9,0.9,4-0.2l3.2-3.2
		C33.9,68.1,34.3,68,34.7,68z"/>
</g>
<g>
	<path class="st1" d="M89,87.6c-4,0-7.3-3.3-7.3-7.3S85,73,89,73s7.3,3.3,7.3,7.3S93.1,87.6,89,87.6z M89,76c-2.4,0-4.3,1.9-4.3,4.3
		s1.9,4.3,4.3,4.3s4.3-1.9,4.3-4.3S91.4,76,89,76z"/>
</g>
<g>
	<path class="st1" d="M89,104.2c-2.6,0-4.7-2.2-4.7-4.8v-2.2c-1.4-0.4-2.7-0.9-4-1.6l-1.6,1.6c-0.9,0.9-2.2,1.4-3.5,1.4
		c-1.2,0-2.4-0.5-3.2-1.3c-1.8-1.8-1.8-4.8,0.1-6.7l1.6-1.6c-0.7-1.3-1.3-2.6-1.6-4h-2.2c-2.7,0-4.8-2.1-4.8-4.7s2.2-4.7,4.8-4.7
		h2.2c0.4-1.4,0.9-2.7,1.6-4l-1.6-1.6c-1.9-1.9-1.9-4.9-0.1-6.7c0.9-0.9,2-1.3,3.2-1.3c1.3,0,2.5,0.5,3.5,1.4l1.6,1.6
		c1.3-0.7,2.6-1.3,4-1.6v-2.2c0-2.7,2.1-4.8,4.7-4.8c2.6,0,4.7,2.2,4.7,4.8v2.2c1.4,0.4,2.7,0.9,4,1.6l1.6-1.6
		c0.9-0.9,2.2-1.4,3.5-1.4c1.2,0,2.4,0.5,3.2,1.3c1.8,1.8,1.8,4.8-0.1,6.7l-1.6,1.6c0.7,1.3,1.3,2.6,1.6,4h2.2
		c2.7,0,4.8,2.1,4.8,4.7s-2.2,4.7-4.8,4.7h-2.2c-0.4,1.4-0.9,2.7-1.6,4l1.6,1.6c1.9,1.9,1.9,4.9,0.1,6.7c-0.9,0.9-2,1.3-3.2,1.3
		c-1.3,0-2.5-0.5-3.5-1.4l-1.6-1.6c-1.3,0.7-2.6,1.3-4,1.6v2.2C93.7,102.1,91.6,104.2,89,104.2z M80.2,92.1c0.3,0,0.6,0.1,0.8,0.3
		c1.6,1,3.3,1.8,5.2,2.1c0.7,0.1,1.2,0.8,1.2,1.5v3.4c0,1,0.7,1.8,1.7,1.8c0.9,0,1.7-0.8,1.7-1.8V96c0-0.7,0.5-1.3,1.2-1.5
		c1.8-0.4,3.6-1.1,5.2-2.1c0.6-0.4,1.4-0.3,1.9,0.2l2.4,2.4c0.7,0.7,1.8,0.7,2.5,0.1c0.6-0.6,0.6-1.7-0.1-2.5l-2.4-2.4
		c-0.5-0.5-0.6-1.3-0.2-1.9c1.1-1.6,1.8-3.3,2.1-5.2c0.1-0.7,0.8-1.2,1.5-1.2h3.4c1,0,1.8-0.7,1.8-1.7s-0.8-1.7-1.8-1.7h-3.4
		c-0.7,0-1.3-0.5-1.5-1.2c-0.4-1.8-1.1-3.6-2.1-5.2c-0.4-0.6-0.3-1.4,0.2-1.9l2.4-2.4c0.7-0.7,0.8-1.8,0.1-2.5
		c-0.6-0.6-1.8-0.6-2.5,0.1L99,68.1c-0.5,0.5-1.3,0.6-1.9,0.2c-1.6-1-3.3-1.8-5.2-2.1c-0.7-0.1-1.2-0.8-1.2-1.5v-3.4
		c0-1-0.7-1.8-1.7-1.8c-0.9,0-1.7,0.8-1.7,1.8v3.4c0,0.7-0.5,1.3-1.2,1.5c-1.9,0.4-3.6,1.1-5.2,2.1c-0.6,0.4-1.4,0.3-1.9-0.2
		l-2.4-2.4c-0.7-0.7-1.8-0.7-2.5-0.1c-0.6,0.6-0.6,1.7,0.1,2.5l2.4,2.4c0.5,0.5,0.6,1.3,0.2,1.9c-1.1,1.6-1.8,3.3-2.1,5.2
		c-0.1,0.7-0.8,1.2-1.5,1.2h-3.4c-1,0-1.8,0.7-1.8,1.7s0.8,1.7,1.8,1.7h3.4c0.7,0,1.3,0.5,1.5,1.2c0.4,1.8,1.1,3.6,2.1,5.2
		c0.4,0.6,0.3,1.4-0.2,1.9l-2.4,2.4c-0.7,0.7-0.8,1.8-0.1,2.5c0.6,0.6,1.8,0.6,2.5-0.1l2.4-2.4C79.4,92.3,79.8,92.1,80.2,92.1z"/>
</g>
<rect id="_x3C_Slice_x3E__7_" x="-1" y="-1" class="st2" width="128" height="128"/>
</svg>
