<?xml version="1.0" encoding="utf-8"?>
<!-- Generator: Adobe Illustrator 24.0.0, SVG Export Plug-In . SVG Version: 6.00 Build 0)  -->
<svg version="1.1" id="Capa_1" xmlns="http://www.w3.org/2000/svg" xmlns:xlink="http://www.w3.org/1999/xlink" x="0px" y="0px"
	 viewBox="0 0 190 85" style="enable-background:new 0 0 190 85;" xml:space="preserve">
<style type="text/css">
	.st0{fill:#36A9E1;}
</style>
<g>
	<path d="M38.3,31.2l3.2,4L28.9,45.5L24.7,49l4.2,3.4l12.7,10.4l-3.2,3.9L25.9,56.6l-6.6-5.4v-4.4c0.1-0.1,3.1-2.6,8.9-7.3
		L38.3,31.2z"/>
	<path d="M141.4,17.8h5v0l-18.7,51.9h-5.1L141.4,17.8L141.4,17.8z"/>
	<path d="M167.7,39.5c5.8,4.7,8.8,7.2,8.9,7.3v4.4l-6.6,5.4l-12.5,10.2l-3.2-3.9l12.7-10.4l4.2-3.4l-4.2-3.5l-12.7-10.4l3.2-4
		L167.7,39.5z"/>
</g>
<circle class="st0" cx="85.6" cy="42" r="29.4"/>
</svg>
